<?xml version="1.0" encoding="iso-8859-1"?>
<!-- Uploaded to: SVG Repo, www.svgrepo.com, Generator: SVG Repo Mixer Tools -->
<svg fill="currentColor" height="800px" width="800px" version="1.1" xmlns="http://www.w3.org/2000/svg" xmlns:xlink="http://www.w3.org/1999/xlink" 
	 viewBox="0 0 512 512" xml:space="preserve">
<g>
	<g>
		<path d="M512,298.34c0-54.091-37.452-98.096-83.487-98.096c-46.035,0-83.487,44.005-83.487,98.096
			c0,49.934,31.916,91.27,73.038,97.33v45.245H266.449v-35.697h71.402c7.05,0,12.179-7.15,9.883-13.842l-24.882-72.491
			c4.541,0,8.973,0.003,12.114-3.914c2.714-3.383,2.546-7.219,1.305-11.111c-1.543-4.841-4.924-14.436-4.924-14.436
			s-19.782-57.999-21.264-62.343c3.092,0,6.36,0.343,9.226-1.062c4.734-2.32,7.035-8.014,5.222-12.975L266.03,12.755
			c-1.301-4.456-5.388-7.52-10.03-7.52s-8.729,3.064-10.03,7.519l-58.696,200.948c-1.461,5.001,1.125,10.476,5.908,12.513
			c2.752,1.171,8.732,0.866,8.732,0.866l-25.863,75.829c0,0-1.656,4.972-1.056,7.74c1.561,7.204,7.999,8.236,14.154,8.236
			l-24.882,72.491c-2.297,6.693,2.833,13.842,9.883,13.842h71.402v35.697H94.041v-45.245c41.122-6.06,73.038-47.396,73.038-97.33
			c0-54.091-37.452-98.096-83.487-98.096c-46.035,0-83.487,44.005-83.487,98.096c0,49.934,31.916,91.27,73.038,97.33v45.245h-8.882
			c-5.77,0-10.449,4.678-10.449,10.449s4.679,10.449,10.449,10.449h381.878c5.77,0,10.449-4.678,10.449-10.449
			s-4.679-10.449-10.449-10.449h-7.177V395.67C480.084,389.61,512,348.274,512,298.34z M74.496,305.412
			c-4.081-4.08-10.698-4.08-14.778,0.001c-4.08,4.079-4.08,10.696,0,14.777l13.425,13.423v40.828
			c-29.553-6.154-52.14-37.927-52.14-76.101c0-42.567,28.077-77.198,62.589-77.198c34.512,0,62.589,34.631,62.589,77.198
			c0,38.174-22.588,69.947-52.14,76.101v-40.828l22.638-22.638c4.08-4.08,4.08-10.697,0-14.778c-4.081-4.08-10.696-4.08-14.778,0
			l-18.309,18.31L74.496,305.412z M188.783,384.32l24.881-72.491c1.659-4.835-0.559-10.347-5.1-12.684
			c-2.743-1.412-5.775-1.158-8.754-1.158l26.598-77.983c1.754-5.146-0.882-10.895-5.868-12.982c-2.888-1.208-6.23-0.84-9.299-0.84
			L256,52.951l44.756,153.231c-3.072,0-6.407-0.37-9.297,0.84c-4.986,2.087-7.625,7.831-5.868,12.982l26.598,77.983
			c-2.976,0-6.013-0.251-8.752,1.158c-4.541,2.337-6.76,7.846-5.1,12.684l24.882,72.491H188.783z M428.513,314.507l-9.096-9.095
			c-4.081-4.08-10.698-4.08-14.777,0.001c-4.08,4.079-4.08,10.696,0,14.777l13.425,13.424v40.828
			c-29.553-6.154-52.14-37.927-52.14-76.101c0-42.567,28.077-77.198,62.589-77.198c34.512,0,62.589,34.631,62.589,77.198
			c0,38.174-22.588,69.947-52.14,76.101v-40.828l22.638-22.638c4.08-4.08,4.08-10.697,0-14.778c-4.081-4.08-10.696-4.08-14.777,0
			L428.513,314.507z"/>
	</g>
</g>
</svg>