<svg 
    fill='currentColor' 
    viewBox='0 0 32 32'
    xmlns='http://www.w3.org/2000/svg'
>
    <!--
    <path
        d='M0,0 L0,32 L32,32 L32,0 Z' 
        stroke='#e0a3a3' 
        stroke-width='1'
    />
    -->
    <path 
        d="M16,0.9 l-14,7.5 v15.2 l14,7.5 l14,-7.6 v-15.1 z
           m-2,8.3 l-5.9,8.8 l-3.7,-8 l9.6,-0.8 z
           m-4,9.7 l6-9.1 l6,9.1 z
           m13.8,-0.9 l-5.8,-8.8 l9.5,0.7 l-3.7,8.1 z
           m-6.8,-14.3 l7.4,4 l-7.4,-0.6 z
           m-2,0 v3.4 l-7.4,0.6 l7.4,-4 z
           m-11,10 l2.7,6 l-2.7,1.6 z
           m1,9.3 l2.7,-1.6 l4.4,5.5 z
           m5,-2.1 h11 l-5,7.5 z
           m9.9,5.9 l4.4,-5.5 l2.7,1.6 z
           m5.6,-7 l-0.2,-0.1 l2.7,-6 v7.6 z"
    />
</svg>