<svg 
    fill='currentColor'
    viewBox='0 0 32 32'
    xmlns='http://www.w3.org/2000/svg'
>
    <!--
    <path
        d='M0,0 L0,32 L32,32 L32,0 Z' 
        stroke='#e0a3a3' 
        stroke-width='1'
    />
    -->
    <path 
        d="M10.8,2 l-9.36,7.02 0.59,3.51 8.78,6.44 8.78,-6.43 0.59,-3.51 z
           m8.01,7.49 l-0.29,1.87 -2.05,-0.99 -3.16,-5.26 z
           m-16.03,0 l5.5,-4.39 -3.16,5.27 -2.05,0.99 z z
           m8.6,3.92 l4.68,-2.05 1.81,0.94 -6.49,4.86 z
           m-1.17,0 l0,3.74 -6.49,-4.86 1.81,-0.94 z
           m0.59,-0.94 l-4.45,-1.99 l4.45,-6.79 l4.45,6.79 z"
    />
    <path 
        d="M21.2,13 l-9.36,7.02 0.59,3.51 8.78,6.44 8.78,-6.43 0.59,-3.51 z
           m8.01,7.49 l-0.29,1.87 -2.05,-0.99 -3.16,-5.26 z
           m-16.03,0 l5.5,-4.39 -3.16,5.27 -2.05,0.99 z z
           m8.6,3.92 l4.68,-2.05 1.81,0.94 -6.49,4.86 z
           m-1.17,0 l0,3.74 -6.49,-4.86 1.81,-0.94 z
           m0.59,-0.94 l-4.45,-1.99 l4.45,-6.79 l4.45,6.79 z"
    />
</svg>