<svg 
    fill='currentColor'
    viewBox='0 0 32 32'
    xmlns='http://www.w3.org/2000/svg'
>
    <!--
    <path
        d='M0,0 L0,32 L32,32 L32,0 Z' 
        stroke='#e0a3a3' 
        stroke-width='1'
    />
    -->

    <path 
        d="M16,1.6 l-9,3.6 l-4.5,6.3 v9 l5.4,6.3 l8.1,3.6 l8.1,-3.6 l5.4,-6.3 v-9 l-4.5-6.3 z
           m-11.7,10.71 l3.6,1.89 l3.33,7.38 l-3.06,3.06 l-3.87,-4.14 z
           m9,9.09 l-3.33,-6.48 l6.03,-4.95 l6.03 4.95 l-3.33,6.48 z
           m14.4,-0.9 l-3.87,4.23 l-3.06,-3.06 l3.33,-7.47 l3.6-1.89 z
           m-10.8,-16.92 l7.02,3.24 l2.88,3.78 l-4.05,2.34 l-5.85,-4.59 z
           m-8.82,3.24 l7.02,-3.24 v4.68 l-5.85,4.59 l-4.05,-2.25 z
           m1.89,18.9 l2.7,-2.7 h6.75 l2.7,2.7 -6.12,2.88 l-6.03,-2.88 z"
    />
</svg>